<svg width="74" height="58" viewBox="0 0 74 58" fill="none" xmlns="http://www.w3.org/2000/svg">
<path d="M8.88574 0.0102539C9.7178 0.961172 11.3818 3.21962 11.3818 4.646C11.3818 9.81647 6.25049 11.4212 6.78516 15.8784C7.06531 18.213 9.99462 21.9408 18.5137 21.9409H37.0566V57.9565C34.9765 58.1942 30.7093 57.5644 30.2812 53.1431C29.7464 47.6159 30.9943 46.011 29.3896 44.228C27.785 42.4451 26.359 41.0181 26.1807 38.522C26.0025 36.0266 27.2506 39.236 28.3203 40.1274C29.176 40.8405 29.6282 41.0181 29.7471 41.0181V38.522C29.747 37.6297 29.3897 33.7085 26.3594 32.4604C23.3283 31.2124 12.0955 30.8553 5.67676 25.5063C-0.741849 20.1574 -0.38553 13.3821 2.64551 10.3511C5.67656 7.32012 10.3121 5.71566 8.88574 0.0102539ZM11.8154 32.6392C13.4203 33.2335 17.6996 34.4575 21.9785 34.6001C21.9785 36.0265 22.1565 39.0577 22.6914 40.1274C23.2266 41.1977 26.7924 47.4377 26.9707 48.1509C27.1489 48.8643 27.1484 50.8253 27.1484 52.2515C27.1484 53.6778 27.1487 56.3524 28.9316 57.7788H11.8154V32.6392Z" fill="#AD7300"/>
<path d="M64.8252 0.0102539C63.9931 0.961167 62.3291 3.21962 62.3291 4.646C62.3291 9.81648 67.4604 11.4212 66.9258 15.8784C66.6456 18.213 63.7163 21.9408 55.1973 21.9409H36.6543V57.9565C38.7345 58.1942 43.0017 57.5645 43.4297 53.1431C43.9646 47.6161 42.716 46.0109 44.3203 44.228C45.9249 42.4452 47.3518 41.0188 47.5303 38.5229C47.7086 36.0268 46.4604 39.236 45.3906 40.1274C44.5349 40.8405 44.0827 41.019 43.9639 41.019V38.5229C43.9639 37.6315 44.3208 33.7086 47.3516 32.4604C50.3826 31.2124 61.6155 30.8553 68.0342 25.5063C74.4527 20.1574 74.0965 13.3821 71.0654 10.3511C68.0344 7.32015 63.3988 5.71564 64.8252 0.0102539ZM62.1035 32.6392C60.4987 33.2335 56.2195 34.4575 51.9404 34.6001C51.9404 36.0265 51.7624 39.0577 51.2275 40.1274C50.6925 41.1975 47.1265 47.4377 46.9482 48.1509C46.77 48.8643 46.7695 50.8252 46.7695 52.2515C46.7695 53.6778 46.7701 56.3524 44.9873 57.7788H62.1035V32.6392Z" fill="#AD7300"/>
</svg>
